<?xml version="1.0" encoding="iso-8859-1"?>
<!-- Generator: Adobe Illustrator 19.0.0, SVG Export Plug-In . SVG Version: 6.00 Build 0)  -->
<svg version="1.1" id="Capa_1" xmlns="http://www.w3.org/2000/svg" xmlns:xlink="http://www.w3.org/1999/xlink" x="0px" y="0px"
	 viewBox="0 0 512 512" style="enable-background:new 0 0 512 512;" xml:space="preserve">
<g>
	<g>
		<path d="M308.498,0v235.344L198.031,0H83.506l-0.001,512l17.431-2.865c29.174-4.794,58.984-8.263,88.601-10.312l13.965-0.966
			V273.956l105.142,223.969l8.852,0.566c31.283,2.001,62.764,5.582,93.567,10.644L428.495,512V0H308.498z M173.503,469.963
			c-20.048,1.676-40.13,3.975-59.999,6.869l0.001-394.584l59.998,127.806V469.963z M328.28,469.161L122.117,29.999h56.856
			l209.05,445.371C368.203,472.701,348.218,470.619,328.28,469.161z M398.495,427.079l-59.998-127.823V29.999h59.998V427.079z"/>
	</g>
</g>
<g>
</g>
<g>
</g>
<g>
</g>
<g>
</g>
<g>
</g>
<g>
</g>
<g>
</g>
<g>
</g>
<g>
</g>
<g>
</g>
<g>
</g>
<g>
</g>
<g>
</g>
<g>
</g>
<g>
</g>
</svg>
